<?xml version="1.0" standalone="no"?>
<!DOCTYPE svg PUBLIC "-//W3C//DTD SVG 20010904//EN"
 "http://www.w3.org/TR/2001/REC-SVG-20010904/DTD/svg10.dtd">
<svg version="1.0" xmlns="http://www.w3.org/2000/svg"
 width="350.000000pt" height="348.000000pt" viewBox="0 0 350.000000 348.000000"
 preserveAspectRatio="xMidYMid meet">

<g transform="translate(0.000000,348.000000) scale(0.100000,-0.100000)"
fill="#000000" stroke="none">
<path d="M1610 3474 c-270 -32 -450 -83 -652 -186 -852 -432 -1198 -1467 -774
-2317 170 -342 440 -612 786 -786 140 -70 323 -130 496 -161 137 -24 431 -24
568 0 174 31 356 91 498 162 494 249 837 705 939 1249 32 170 32 429 1 604
-66 362 -251 709 -511 954 -263 247 -569 400 -926 462 -88 15 -355 27 -425 19z
m324 -551 c12 -6 -5 -22 -77 -70 -51 -34 -129 -96 -175 -138 l-83 -77 -57 37
c-81 54 -211 159 -206 166 8 14 142 62 224 80 68 15 113 18 222 15 75 -2 143
-8 152 -13z m167 -47 c82 -33 193 -110 274 -192 67 -68 153 -180 144 -188 -5
-5 -195 -10 -295 -8 l-82 2 -7 47 c-8 56 -53 187 -100 290 -19 41 -35 77 -35
80 0 6 33 -4 101 -31z m-151 -4 c0 -5 -23 -79 -50 -165 -40 -122 -54 -157 -68
-157 -25 0 -185 59 -199 73 -9 9 8 29 74 87 80 70 218 170 236 170 4 0 7 -4 7
-8z m78 -77 c34 -82 98 -293 90 -300 -6 -6 -117 9 -196 26 -37 8 -52 15 -52
27 0 13 69 224 105 321 8 21 19 5 53 -74z m-638 -40 c30 -26 85 -68 122 -92
l68 -44 -63 -72 c-34 -40 -77 -93 -95 -120 -26 -37 -38 -46 -55 -42 -12 2 -98
11 -192 20 -93 8 -185 18 -203 21 -31 5 -34 2 -52 -40 -43 -97 -46 -92 93
-174 l123 -72 59 20 c32 11 61 20 65 20 5 0 1 -23 -7 -51 -15 -51 -15 -101 3
-291 l6 -67 -43 -11 c-24 -6 -75 -23 -113 -38 -118 -46 -186 -29 -214 54 -41
118 -51 273 -27 419 8 49 11 93 7 96 -6 6 -331 144 -396 169 -16 6 -27 13 -24
15 2 3 94 -4 204 -15 109 -11 217 -21 239 -23 l40 -4 45 75 c82 138 303 338
340 308 8 -7 40 -34 70 -61z m1799 -94 c11 -15 18 -31 14 -35 -3 -3 -73 -6
-155 -6 -125 0 -148 -2 -148 -15 0 -8 3 -15 8 -15 4 0 70 -9 147 -19 77 -11
143 -17 147 -15 5 3 8 14 8 25 0 10 4 19 10 19 15 0 40 -56 40 -90 0 -26 -4
-30 -28 -30 -24 0 -337 41 -420 55 l-33 6 22 37 c13 20 33 54 46 75 l23 37
149 0 150 0 20 -29z m-1526 -80 c36 -16 90 -37 121 -47 30 -10 53 -21 50 -26
-3 -4 -46 -8 -95 -8 -97 0 -179 -21 -247 -64 -66 -40 -68 -41 -56 -25 22 30
157 199 160 199 1 0 31 -13 67 -29z m263 -86 c34 -8 91 -17 128 -21 37 -4 69
-10 71 -14 8 -14 22 -120 15 -120 -4 0 -15 10 -26 22 -32 36 -134 97 -193 115
-31 9 -60 20 -65 25 -14 11 -1 10 70 -7z m1124 -26 c52 -7 99 -16 104 -20 9
-8 -21 -199 -33 -210 -11 -11 -476 46 -474 58 2 10 52 96 109 189 12 20 15 20
106 8 51 -7 136 -18 188 -25z m-461 -109 c17 -44 31 -84 31 -91 0 -7 -13 -9
-37 -5 -21 3 -120 13 -220 22 -100 10 -186 20 -191 23 -5 3 -12 39 -16 79 l-6
72 147 1 c82 0 166 4 188 8 51 10 63 -3 104 -109z m51 -413 c0 -13 -5 -49 -11
-80 -9 -41 -16 -57 -28 -57 -9 0 -88 22 -176 48 -162 49 -177 57 -161 98 4 11
39 14 191 14 l185 0 0 -23z m-210 -114 c91 -25 168 -49 172 -52 12 -11 -66
-175 -122 -256 -54 -77 -183 -205 -207 -205 -8 0 -32 17 -56 39 -52 48 -138
103 -211 135 -32 14 -56 31 -56 40 0 8 26 29 58 47 83 47 163 134 208 223 20
42 40 76 43 76 3 0 80 -21 171 -47z m-1130 -55 c0 -14 -18 -9 -24 8 -11 28 -6
39 9 20 8 -11 15 -23 15 -28z"/>
</g>
</svg>
